<svg width="25" height="25" viewBox="0 0 25 25" fill="none" xmlns="http://www.w3.org/2000/svg">
<mask id="mask0_168_31543" style="mask-type:alpha" maskUnits="userSpaceOnUse" x="0" y="0" width="25" height="25">
<rect width="25" height="25" transform="matrix(1.19249e-08 -1 -1 -1.19249e-08 25 25)" fill="#D9D9D9"/>
</mask>
<g mask="url(#mask0_168_31543)">
<path fill-rule="evenodd" clip-rule="evenodd" d="M11.9289 24.7071C12.3195 25.0976 12.9526 25.0976 13.3431 24.7071L19.7071 18.3431C20.0976 17.9526 20.0976 17.3195 19.7071 16.9289C19.3166 16.5384 18.6834 16.5384 18.2929 16.9289L13.636 21.5858L13.636 -7.58895e-08L11.636 -9.97392e-08L11.636 21.5858L6.97919 16.9289C6.58866 16.5384 5.9555 16.5384 5.56497 16.9289C5.17445 17.3195 5.17445 17.9526 5.56497 18.3431L11.9289 24.7071Z" fill="#121212"/>
</g>
</svg>
