<svg width="24" height="24" viewBox="0 0 24 24" fill="none" xmlns="http://www.w3.org/2000/svg">
<path fill-rule="evenodd" clip-rule="evenodd" d="M14.7692 8.55905e-07L23.0769 0C23.5867 1.47838e-06 24 0.413277 24 0.923077V9.23077C24 9.74057 23.5867 10.1538 23.0769 10.1538C22.5671 10.1538 22.1538 9.74057 22.1538 9.23077V3.15158L1.57579 23.7296C1.21531 24.0901 0.630847 24.0901 0.270363 23.7296C-0.090121 23.3692 -0.090121 22.7847 0.270363 22.4242L20.8484 1.84616L14.7692 1.84615C14.2594 1.84615 13.8462 1.43288 13.8462 0.923077C13.8462 0.413276 14.2594 5.44667e-07 14.7692 8.55905e-07Z" fill="black"/>
</svg>
