<svg width="16" height="26" viewBox="0 0 16 26" fill="none" xmlns="http://www.w3.org/2000/svg">
<g clip-path="url(#clip0_91_261)">
<path d="M4.00061 17.8334H7.49963V21.6664C7.49963 23.8208 5.89501 25.5004 4.00061 25.5004C2.10629 25.5003 0.501587 23.8207 0.501587 21.6664C0.501748 19.5122 2.10639 17.8335 4.00061 17.8334Z" stroke="white"/>
<path d="M4.00061 9.16663H7.49963V16.8336H4.00061C2.10629 16.8335 0.501587 15.154 0.501587 12.9996C0.501748 10.8455 2.10639 9.16673 4.00061 9.16663Z" stroke="white"/>
<path d="M4.00122 0.5H7.50024V8.16699H4.00122C2.1069 8.16689 0.502197 6.48733 0.502197 4.33301C0.502359 2.17884 2.107 0.500105 4.00122 0.5Z" stroke="white"/>
<path d="M11.999 0.5C13.8933 0.5 15.4979 2.17877 15.498 4.33301C15.498 6.4874 13.8934 8.16699 11.999 8.16699H8.5V0.5H11.999Z" stroke="white"/>
<path d="M11.999 9.16663C13.8933 9.16663 15.4979 10.8454 15.498 12.9996C15.498 15.154 13.8934 16.8336 11.999 16.8336C10.1047 16.8335 8.5 15.154 8.5 12.9996C8.50016 10.8455 10.1048 9.16673 11.999 9.16663Z" stroke="white"/>
</g>
<defs>
<clipPath id="clip0_91_261">
<rect width="16" height="26" fill="white"/>
</clipPath>
</defs>
</svg>
