<svg width="18" height="18" viewBox="0 0 18 18" fill="none" xmlns="http://www.w3.org/2000/svg">
<path fill-rule="evenodd" clip-rule="evenodd" d="M10.2857 8.67021e-07L17.2286 0C17.6546 5.41888e-07 18 0.345381 18 0.771428L18 7.71429C18 8.14033 17.6546 8.48572 17.2286 8.48571C16.8025 8.48571 16.4571 8.14033 16.4571 7.71429L16.4571 2.63382L1.31691 17.7741C1.01565 18.0753 0.527208 18.0753 0.225946 17.7741C-0.0753154 17.4728 -0.0753154 16.9844 0.225946 16.6831L15.3662 1.54286L10.2857 1.54286C9.85967 1.54286 9.51429 1.19748 9.51429 0.771429C9.51428 0.345381 9.85967 1.73404e-07 10.2857 8.67021e-07Z" fill="white"/>
</svg>
