<svg width="40" height="40" viewBox="0 0 40 40" fill="none" xmlns="http://www.w3.org/2000/svg">
<mask id="mask0_142_10687" style="mask-type:alpha" maskUnits="userSpaceOnUse" x="0" y="0" width="40" height="40">
<rect width="40" height="40" fill="#D9D9D9"/>
</mask>
<g mask="url(#mask0_142_10687)">
<path d="M10 0C15.5228 0 20 4.47715 20 10C20 4.47715 24.4772 0 30 0H40V10C40 15.5228 35.5228 20 30 20C35.5228 20 40 24.4772 40 30V40H30C24.4772 40 20 35.5228 20 30C20 35.5228 15.5228 40 10 40H0V30C0 24.4772 4.47715 20 10 20C4.47715 20 0 15.5228 0 10V0H10Z" fill="#EA9835"/>
</g>
</svg>
