<svg width="460" height="40" viewBox="0 0 460 40" fill="none" xmlns="http://www.w3.org/2000/svg">
<mask id="mask0_137_10669" style="mask-type:alpha" maskUnits="userSpaceOnUse" x="0" y="0" width="40" height="40">
<rect width="40" height="40" fill="#214ECF"/>
</mask>
<g mask="url(#mask0_137_10669)">
<path d="M20 0C31.0457 0 40 8.9543 40 20H37.3242C39.0259 22.9417 40 26.3571 40 30H37.3242C39.0259 32.9417 40 36.3571 40 40H0C0 36.3571 0.974059 32.9417 2.67578 30H0C0 26.3571 0.974059 22.9417 2.67578 20H0C0 8.9543 8.9543 0 20 0Z" fill="#214ECF"/>
</g>
<mask id="mask1_137_10669" style="mask-type:alpha" maskUnits="userSpaceOnUse" x="360" y="0" width="40" height="40">
<rect x="360" width="40" height="40" fill="#F2674A"/>
</mask>
<g mask="url(#mask1_137_10669)">
<path d="M387 12H393V26H400V40H360V26H367V12H373V0H387V12Z" fill="#F2674A"/>
</g>
<mask id="mask2_137_10669" style="mask-type:alpha" maskUnits="userSpaceOnUse" x="420" y="0" width="40" height="40">
<rect x="420" width="40" height="40" fill="#D9D9D9"/>
</mask>
<g mask="url(#mask2_137_10669)">
<path d="M436 0C441.523 1.28852e-07 446 4.47715 446 10C446 4.47715 450.477 1.28852e-07 456 0H460V26C460 33.732 453.732 40 446 40H434C426.268 40 420 33.732 420 26V0H436ZM453 6C451.895 6 451 6.89543 451 8C451 9.10457 451.895 10 453 10C454.105 10 455 9.10457 455 8C455 6.89543 454.105 6 453 6Z" fill="#EA9835"/>
</g>
<mask id="mask3_137_10669" style="mask-type:alpha" maskUnits="userSpaceOnUse" x="60" y="0" width="40" height="40">
<rect x="60" width="40" height="40" fill="#D9D9D9"/>
</mask>
<g mask="url(#mask3_137_10669)">
<path d="M70 0C75.5228 0 80 4.47715 80 10C80 4.47715 84.4772 0 90 0H100V10C100 15.5228 95.5228 20 90 20C95.5228 20 100 24.4772 100 30V40H90C84.4772 40 80 35.5228 80 30C80 35.5228 75.5228 40 70 40H60V30C60 24.4772 64.4772 20 70 20C64.4772 20 60 15.5228 60 10V0H70Z" fill="#EA9835"/>
</g>
<mask id="mask4_137_10669" style="mask-type:alpha" maskUnits="userSpaceOnUse" x="120" y="0" width="40" height="40">
<rect x="120" width="40" height="40" fill="#D9D9D9"/>
</mask>
<g mask="url(#mask4_137_10669)">
<path d="M160 25H159.9C158.897 33.4222 150.371 40 140 40L139.483 39.9941C129.347 39.78 121.086 33.2819 120.1 25H120V0C131.046 0 140 7.46225 140 16.667C140 7.46225 148.954 0 160 0V25Z" fill="#84A5F2"/>
</g>
<mask id="mask5_137_10669" style="mask-type:alpha" maskUnits="userSpaceOnUse" x="180" y="0" width="40" height="40">
<rect x="180" width="40" height="40" fill="#D9D9D9"/>
</mask>
<g mask="url(#mask5_137_10669)">
<path d="M220 40H180L185 20L180 0H220L215 20L220 40Z" fill="#F2674A"/>
</g>
<mask id="mask6_137_10669" style="mask-type:alpha" maskUnits="userSpaceOnUse" x="240" y="0" width="40" height="40">
<rect x="240" width="40" height="40" fill="#D9D9D9"/>
</mask>
<g mask="url(#mask6_137_10669)">
<path d="M280 0C280 4.84969 278.273 9.2953 275.401 12.7578C278.119 14.0362 280 16.7981 280 20C280 23.2017 278.118 25.9627 275.401 27.2412C278.273 30.7038 280 35.15 280 40H240C240 35.1503 241.726 30.7037 244.598 27.2412C241.881 25.9625 240 23.2014 240 20C240 16.7984 241.881 14.0364 244.598 12.7578C241.726 9.29537 240 4.84946 240 0H280Z" fill="#FCDED6"/>
</g>
<mask id="mask7_137_10669" style="mask-type:alpha" maskUnits="userSpaceOnUse" x="300" y="0" width="40" height="40">
<rect x="300" width="40" height="40" fill="#214ECF"/>
</mask>
<g mask="url(#mask7_137_10669)">
<path d="M333 0C336.866 0 340 3.13401 340 7V40H300V7C300 3.13401 303.134 0 307 0C309.948 0 312.468 1.82238 313.5 4.40137C314.532 1.82238 317.052 0 320 0C322.948 0 325.468 1.82238 326.5 4.40137C327.532 1.82238 330.052 0 333 0Z" fill="#214ECF"/>
</g>
</svg>
